<?xml version="1.0" encoding="UTF-8"?>
<svg xmlns="http://www.w3.org/2000/svg" version="1.1" viewBox="0 0 500 500">
  <!-- Generator: Adobe Illustrator 28.7.1, SVG Export Plug-In . SVG Version: 1.2.0 Build 142)  -->
  <g>
    <g id="OBJECTS">
      <path d="M31.7,445.11h436.6c6.9,0,12.5-5.59,12.5-12.51V138.29c0-6.9-5.6-12.51-12.5-12.51h-202.86l-41.85-65.15c-2.3-3.58-6.27-5.75-10.52-5.75H31.7c-6.9,0-12.5,5.6-12.5,12.51v365.21c0,6.91,5.6,12.51,12.5,12.51ZM44.21,79.9h162.04l32.13,50.02H44.21v-50.02ZM44.21,191.88v-40.64h214.4c1.13,0,2.12-.18,3.06-.44h194.13v269.31H44.21v-228.23Z"/>
      <rect x="34.67" y="142.33" width="434.67" height="291.33"/>
    </g>
  </g>
</svg>