<?xml version="1.0" encoding="UTF-8"?>
<svg xmlns="http://www.w3.org/2000/svg" version="1.1" viewBox="0 0 500 500">
  <defs>
    <style>
      .cls-1 {
        display: none;
      }

      .cls-2 {
        stroke: #000;
        stroke-miterlimit: 10;
        stroke-width: 12px;
      }
    </style>
  </defs>
  <!-- Generator: Adobe Illustrator 28.7.1, SVG Export Plug-In . SVG Version: 1.2.0 Build 142)  -->
  <g>
    <g id="OBJECTS">
      <g class="cls-1">
        <path d="M31.7,445.11h436.6c6.9,0,12.5-5.59,12.5-12.51V138.29c0-6.9-5.6-12.51-12.5-12.51h-202.86l-41.85-65.15c-2.3-3.58-6.27-5.75-10.52-5.75H31.7c-6.9,0-12.5,5.6-12.5,12.51v365.21c0,6.91,5.6,12.51,12.5,12.51ZM44.21,79.9h162.04l32.13,50.02H44.21v-50.02ZM44.21,191.88v-40.64h214.4c1.13,0,2.12-.18,3.06-.44h194.13v269.31H44.21v-228.23Z"/>
      </g>
      <g>
        <rect class="cls-2" x="361.2" y="165.81" width="5.22" height="50.78" transform="translate(-28.64 313.26) rotate(-45)"/>
        <path class="cls-2" d="M84.78,195.04h187.56c3.07,0,5.57-2.5,5.57-5.57s-2.49-5.57-5.57-5.57H84.78c-3.08,0-5.57,2.49-5.57,5.57s2.49,5.57,5.57,5.57Z"/>
        <path class="cls-2" d="M272.34,337.43H84.78c-3.08,0-5.57,2.49-5.57,5.57s2.49,5.56,5.57,5.56h187.56c3.07,0,5.57-2.49,5.57-5.56s-2.49-5.57-5.57-5.57Z"/>
        <path class="cls-2" d="M467.71,88.36c-.11-.13-.25-.28-.35-.38-7.25-7.25-15.31-10.92-23.78-10.87-13.24.06-22.68,9.27-23.42,10.01l-72.39,72.39c-1.04,1.04-1.63,2.46-1.63,3.94,0,.49.09.97.21,1.42l-4.31,4.31-1.97-1.97-7.61,7.61v-99.23H24.67v348.82h307.79v-154.15l55.33-55.33-1.97-1.97,4.31-4.31c.47.12.95.21,1.43.21,1.42,0,2.85-.54,3.94-1.63l71.34-71.34c.44-.42,10.81-10.45,11.03-24.39.13-8.29-3.25-16.04-10.15-23.14ZM321.32,281.39v131.88H35.8V86.72h285.52v99.23l-62.16,62.16,4.46,4.46-1.5,8.71H84.78c-3.08,0-5.57,2.49-5.57,5.56s2.49,5.57,5.57,5.57h175.41l-4.7,27.27,47.09-8.15,4.3,4.3,14.44-14.44,5.57-5.57-5.57,5.57ZM269.95,294.18l-10.33,1.94-.72.13,1.93-11.19,2.41,2.41,5.19-30.08,29.32,29.33-30.08,5.19,2.27,2.27ZM306.88,280.08l-31.97-31.97,65.16-65.15,31.97,31.97-65.16,65.15ZM459.06,127.92l-67.5,67.5-31.98-31.97,68.46-68.45s.02-.02.04-.03c.07-.07,6.79-6.67,15.56-6.71,5.45,0,10.69,2.49,15.74,7.49.1.11.2.22.28.3,4.77,4.83,7.15,9.95,7.09,15.21-.11,9.23-7.52,16.52-7.68,16.67Z"/>
        <path class="cls-2" d="M347.55,145.22c1.91,1.9,5.01,1.9,6.92,0l51.34-51.34c1.91-1.91,1.91-5,0-6.91l-.07-.07c-1.91-1.91-5.01-1.91-6.92,0l-51.34,51.34c-1.91,1.91-1.91,5,0,6.91l.07.07Z"/>
      </g>
    </g>
  </g>
</svg>